<svg xmlns="http://www.w3.org/2000/svg" xmlns:xlink="http://www.w3.org/1999/xlink" width="64" zoomAndPan="magnify" viewBox="0 0 48 48" height="64" preserveAspectRatio="xMidYMid meet" version="1.0"><defs><g/><clipPath id="f3b3c66d0a"><path d="M 6 16 L 42.382812 16 L 42.382812 37 L 6 37 Z M 6 16 " clip-rule="nonzero"/></clipPath></defs><g clip-path="url(#f3b3c66d0a)"><path fill="#ffffff" d="M 18.355469 36.992188 C 14.179688 36.992188 10.96875 35.699219 8.804688 33.15625 C 6.730469 30.710938 5.703125 26.953125 6.246094 23.796875 C 6.3125 23.433594 6.625 23.171875 6.992188 23.171875 L 30.585938 23.171875 C 31.238281 23.1875 31.765625 23.078125 32.160156 22.960938 C 31.386719 21.0625 31.839844 18.746094 32.785156 17.328125 L 33.289062 16.574219 C 33.519531 16.230469 33.984375 16.136719 34.332031 16.363281 L 35.089844 16.863281 C 36.367188 17.839844 37.152344 18.894531 37.5 20.089844 C 38.808594 19.976562 40.398438 20.152344 41.296875 20.753906 L 42.015625 21.230469 C 42.328125 21.441406 42.441406 21.855469 42.273438 22.195312 L 42.191406 22.367188 C 42.0625 22.628906 41.875 23.007812 41.796875 23.148438 C 40.464844 25.667969 37.976562 25.960938 36.675781 25.980469 C 33.511719 33.085938 27.027344 36.992188 18.355469 36.992188 Z M 7.652344 24.679688 C 7.398438 27.277344 8.289062 30.21875 9.953125 32.175781 C 11.820312 34.367188 14.644531 35.480469 18.355469 35.480469 C 26.566406 35.480469 32.648438 31.734375 35.480469 24.933594 C 35.601562 24.648438 35.902344 24.496094 36.191406 24.46875 C 37.671875 24.5 39.488281 24.289062 40.464844 22.433594 C 40.472656 22.421875 40.480469 22.40625 40.488281 22.394531 C 40.515625 22.347656 40.570312 22.242188 40.625 22.125 L 40.457031 22.011719 C 39.917969 21.652344 38.347656 21.429688 37.042969 21.671875 C 36.84375 21.707031 36.632812 21.664062 36.464844 21.542969 C 36.296875 21.421875 36.183594 21.238281 36.15625 21.03125 C 36.003906 19.9375 35.371094 18.980469 34.214844 18.09375 L 34.125 18.035156 L 34.035156 18.167969 C 33.230469 19.375 32.925781 21.542969 33.839844 22.929688 C 33.957031 23.109375 33.992188 23.324219 33.941406 23.53125 C 33.890625 23.734375 33.753906 23.910156 33.566406 24.007812 C 33.175781 24.21875 32.125 24.703125 30.570312 24.675781 L 7.652344 24.675781 Z M 7.652344 24.679688 " fill-opacity="1" fill-rule="nonzero"/></g><path fill="#ffffff" d="M 30.265625 24.667969 L 8.371094 24.667969 C 7.953125 24.667969 7.613281 24.332031 7.613281 23.914062 L 7.613281 19.613281 C 7.613281 19.195312 7.953125 18.859375 8.371094 18.859375 L 30.265625 18.859375 C 30.683594 18.859375 31.023438 19.195312 31.023438 19.613281 L 31.023438 23.914062 C 31.023438 24.332031 30.683594 24.667969 30.265625 24.667969 Z M 9.125 23.160156 L 29.511719 23.160156 L 29.511719 20.367188 L 9.125 20.367188 Z M 9.125 23.160156 " fill-opacity="1" fill-rule="nonzero"/><path fill="#ffffff" d="M 25.734375 20.367188 L 12.144531 20.367188 C 11.726562 20.367188 11.386719 20.03125 11.386719 19.613281 L 11.386719 15.3125 C 11.386719 14.894531 11.726562 14.558594 12.144531 14.558594 L 25.734375 14.558594 C 26.152344 14.558594 26.492188 14.894531 26.492188 15.3125 L 26.492188 19.613281 C 26.492188 20.03125 26.152344 20.367188 25.734375 20.367188 Z M 12.898438 18.859375 L 24.980469 18.859375 L 24.980469 16.066406 L 12.898438 16.066406 Z M 12.898438 18.859375 " fill-opacity="1" fill-rule="nonzero"/><path fill="#ffffff" d="M 25.734375 24.667969 L 21.207031 24.667969 C 20.789062 24.667969 20.449219 24.332031 20.449219 23.914062 L 20.449219 11.007812 C 20.449219 10.59375 20.789062 10.253906 21.207031 10.253906 L 25.734375 10.253906 C 26.152344 10.253906 26.492188 10.59375 26.492188 11.007812 L 26.492188 23.914062 C 26.492188 24.332031 26.152344 24.667969 25.734375 24.667969 Z M 21.960938 23.160156 L 24.980469 23.160156 L 24.980469 11.765625 L 21.960938 11.765625 Z M 21.960938 23.160156 " fill-opacity="1" fill-rule="nonzero"/><path fill="#ffffff" d="M 21.207031 24.667969 L 16.675781 24.667969 C 16.257812 24.667969 15.917969 24.332031 15.917969 23.914062 L 15.917969 15.3125 C 15.917969 14.894531 16.257812 14.558594 16.675781 14.558594 L 21.207031 14.558594 C 21.621094 14.558594 21.960938 14.894531 21.960938 15.3125 L 21.960938 23.914062 C 21.960938 24.332031 21.621094 24.667969 21.207031 24.667969 Z M 17.429688 23.160156 L 20.449219 23.160156 L 20.449219 16.066406 L 17.429688 16.066406 Z M 17.429688 23.160156 " fill-opacity="1" fill-rule="nonzero"/><path fill="#ffffff" d="M 16.675781 24.667969 L 12.144531 24.667969 C 11.726562 24.667969 11.386719 24.332031 11.386719 23.914062 L 11.386719 19.613281 C 11.386719 19.195312 11.726562 18.859375 12.144531 18.859375 L 16.675781 18.859375 C 17.089844 18.859375 17.429688 19.195312 17.429688 19.613281 L 17.429688 23.914062 C 17.429688 24.332031 17.089844 24.667969 16.675781 24.667969 Z M 12.898438 23.160156 L 15.917969 23.160156 L 15.917969 20.367188 L 12.898438 20.367188 Z M 12.898438 23.160156 " fill-opacity="1" fill-rule="nonzero"/><g fill="#ffffff" fill-opacity="1"><g transform="translate(21.52815, 36.374448)"><g><path d="M 0.140625 -0.125 L 0.15625 -0.125 L 0.15625 -0.171875 C 0.15625 -0.203125 0.148438 -0.222656 0.140625 -0.234375 C 0.140625 -0.242188 0.132812 -0.25 0.125 -0.25 C 0.113281 -0.25 0.109375 -0.25 0.109375 -0.25 C 0.109375 -0.25 0.109375 -0.242188 0.109375 -0.234375 C 0.109375 -0.234375 0.109375 -0.226562 0.109375 -0.21875 L 0.125 -0.21875 C 0.125 -0.207031 0.125 -0.195312 0.125 -0.1875 C 0.125 -0.175781 0.117188 -0.164062 0.109375 -0.15625 C 0.0976562 -0.15625 0.0820312 -0.15625 0.0625 -0.15625 C 0.0390625 -0.15625 0.03125 -0.171875 0.03125 -0.203125 C 0.03125 -0.242188 0.0664062 -0.265625 0.140625 -0.265625 C 0.179688 -0.265625 0.207031 -0.253906 0.21875 -0.234375 C 0.238281 -0.222656 0.25 -0.195312 0.25 -0.15625 L 0.25 -0.046875 C 0.25 -0.0351562 0.253906 -0.03125 0.265625 -0.03125 C 0.285156 -0.03125 0.296875 -0.046875 0.296875 -0.078125 C 0.296875 -0.046875 0.289062 -0.0195312 0.28125 0 C 0.269531 0.0078125 0.253906 0.015625 0.234375 0.015625 C 0.179688 0.015625 0.15625 0 0.15625 -0.03125 C 0.144531 -0.0195312 0.132812 -0.0078125 0.125 0 C 0.125 0.0078125 0.113281 0.015625 0.09375 0.015625 C 0.0390625 0.015625 0.015625 -0.0078125 0.015625 -0.0625 C 0.015625 -0.09375 0.0234375 -0.109375 0.046875 -0.109375 C 0.0664062 -0.117188 0.0976562 -0.125 0.140625 -0.125 Z M 0.109375 -0.0625 C 0.109375 -0.0390625 0.109375 -0.0234375 0.109375 -0.015625 C 0.117188 -0.015625 0.125 -0.015625 0.125 -0.015625 C 0.132812 -0.015625 0.140625 -0.0195312 0.140625 -0.03125 C 0.148438 -0.0390625 0.15625 -0.0507812 0.15625 -0.0625 L 0.15625 -0.125 L 0.140625 -0.125 C 0.117188 -0.125 0.109375 -0.101562 0.109375 -0.0625 Z M 0.109375 -0.0625 "/></g></g></g></svg>