<svg xmlns="http://www.w3.org/2000/svg" xmlns:xlink="http://www.w3.org/1999/xlink" width="64" zoomAndPan="magnify" viewBox="0 0 48 48" height="64" preserveAspectRatio="xMidYMid meet" version="1.0"><defs><g/><clipPath id="c55396dd6d"><path d="M 5.191406 6.015625 L 43.394531 6.015625 L 43.394531 41 L 5.191406 41 Z M 5.191406 6.015625 " clip-rule="nonzero"/></clipPath></defs><g clip-path="url(#c55396dd6d)"><path fill="#ffffff" d="M 24.203125 40.539062 C 23.773438 40.539062 23.378906 40.304688 23.167969 39.933594 L 5.34375 8.253906 C 5.136719 7.886719 5.140625 7.433594 5.351562 7.070312 C 5.566406 6.707031 5.957031 6.484375 6.378906 6.484375 L 13.140625 6.484375 C 13.183594 6.480469 13.230469 6.476562 13.277344 6.476562 L 19.996094 6.476562 C 20.421875 6.476562 20.8125 6.703125 21.023438 7.070312 L 24.203125 12.597656 L 27.386719 7.070312 C 27.597656 6.703125 27.992188 6.476562 28.414062 6.476562 L 35.132812 6.476562 C 35.183594 6.476562 35.234375 6.480469 35.285156 6.484375 L 42.027344 6.484375 C 42.449219 6.484375 42.839844 6.710938 43.050781 7.074219 C 43.261719 7.4375 43.269531 7.886719 43.0625 8.257812 L 25.238281 39.933594 C 25.027344 40.304688 24.632812 40.539062 24.203125 40.539062 Z M 8.414062 8.859375 L 24.203125 36.925781 L 39.992188 8.859375 L 35.128906 8.859375 C 35.078125 8.859375 35.03125 8.859375 34.980469 8.851562 L 29.101562 8.851562 L 25.234375 15.570312 C 25.019531 15.941406 24.628906 16.167969 24.203125 16.167969 C 23.777344 16.167969 23.386719 15.9375 23.171875 15.570312 L 19.308594 8.851562 L 13.410156 8.851562 C 13.367188 8.855469 13.324219 8.859375 13.277344 8.859375 Z M 8.414062 8.859375 " fill-opacity="1" fill-rule="nonzero"/></g><g fill="#ffffff" fill-opacity="1"><g transform="translate(42.37114, 7.868327)"><g><path d="M 0.140625 -0.125 L 0.15625 -0.125 L 0.15625 -0.171875 C 0.15625 -0.203125 0.148438 -0.222656 0.140625 -0.234375 C 0.140625 -0.242188 0.132812 -0.25 0.125 -0.25 C 0.113281 -0.25 0.109375 -0.25 0.109375 -0.25 C 0.109375 -0.25 0.109375 -0.242188 0.109375 -0.234375 C 0.109375 -0.234375 0.109375 -0.226562 0.109375 -0.21875 L 0.125 -0.21875 C 0.125 -0.207031 0.125 -0.195312 0.125 -0.1875 C 0.125 -0.175781 0.117188 -0.164062 0.109375 -0.15625 C 0.0976562 -0.15625 0.0820312 -0.15625 0.0625 -0.15625 C 0.0390625 -0.15625 0.03125 -0.171875 0.03125 -0.203125 C 0.03125 -0.242188 0.0664062 -0.265625 0.140625 -0.265625 C 0.179688 -0.265625 0.207031 -0.253906 0.21875 -0.234375 C 0.238281 -0.222656 0.25 -0.195312 0.25 -0.15625 L 0.25 -0.046875 C 0.25 -0.0351562 0.253906 -0.03125 0.265625 -0.03125 C 0.285156 -0.03125 0.296875 -0.046875 0.296875 -0.078125 C 0.296875 -0.046875 0.289062 -0.0195312 0.28125 0 C 0.269531 0.0078125 0.253906 0.015625 0.234375 0.015625 C 0.179688 0.015625 0.15625 0 0.15625 -0.03125 C 0.144531 -0.0195312 0.132812 -0.0078125 0.125 0 C 0.125 0.0078125 0.113281 0.015625 0.09375 0.015625 C 0.0390625 0.015625 0.015625 -0.0078125 0.015625 -0.0625 C 0.015625 -0.09375 0.0234375 -0.109375 0.046875 -0.109375 C 0.0664062 -0.117188 0.0976562 -0.125 0.140625 -0.125 Z M 0.109375 -0.0625 C 0.109375 -0.0390625 0.109375 -0.0234375 0.109375 -0.015625 C 0.117188 -0.015625 0.125 -0.015625 0.125 -0.015625 C 0.132812 -0.015625 0.140625 -0.0195312 0.140625 -0.03125 C 0.148438 -0.0390625 0.15625 -0.0507812 0.15625 -0.0625 L 0.15625 -0.125 L 0.140625 -0.125 C 0.117188 -0.125 0.109375 -0.101562 0.109375 -0.0625 Z M 0.109375 -0.0625 "/></g></g></g></svg>