<svg xmlns="http://www.w3.org/2000/svg" xmlns:xlink="http://www.w3.org/1999/xlink" width="64" zoomAndPan="magnify" viewBox="0 0 48 48" height="64" preserveAspectRatio="xMidYMid meet" version="1.0"><defs><g/><clipPath id="891a6997ac"><path d="M 8 5.597656 L 40.625 5.597656 L 40.625 18 L 8 18 Z M 8 5.597656 " clip-rule="nonzero"/></clipPath><clipPath id="94ba09f1b7"><path d="M 8 29 L 40.625 29 L 40.625 41.597656 L 8 41.597656 Z M 8 29 " clip-rule="nonzero"/></clipPath><clipPath id="d9fd5dac4f"><path d="M 7.566406 19 L 38 19 L 38 28 L 7.566406 28 Z M 7.566406 19 " clip-rule="nonzero"/></clipPath></defs><g clip-path="url(#891a6997ac)"><path fill="#ffffff" d="M 10.015625 17.984375 C 9.648438 17.984375 9.304688 17.804688 9.097656 17.503906 C 8.890625 17.199219 8.84375 16.8125 8.976562 16.46875 C 8.984375 16.453125 9.03125 16.328125 9.035156 16.316406 C 11.871094 9.871094 18.222656 5.691406 25.214844 5.660156 C 25.242188 5.660156 25.269531 5.660156 25.292969 5.660156 C 31.167969 5.660156 36.664062 8.59375 40.007812 13.519531 C 40.304688 13.953125 40.257812 14.539062 39.890625 14.917969 C 38.097656 16.789062 35.601562 17.871094 33.046875 17.882812 L 10.019531 17.984375 C 10.019531 17.984375 10.019531 17.984375 10.015625 17.984375 Z M 25.292969 7.890625 C 25.269531 7.890625 25.25 7.890625 25.226562 7.890625 C 19.660156 7.914062 14.558594 10.949219 11.816406 15.746094 L 33.035156 15.652344 C 34.6875 15.644531 36.308594 15.050781 37.605469 13.996094 C 34.644531 10.152344 30.113281 7.890625 25.292969 7.890625 Z M 25.292969 7.890625 " fill-opacity="1" fill-rule="nonzero"/></g><g clip-path="url(#94ba09f1b7)"><path fill="#ffffff" d="M 25.296875 41.351562 C 21.777344 41.351562 18.441406 40.34375 15.601562 38.4375 C 12.710938 36.546875 10.464844 33.890625 9.054688 30.722656 C 8.902344 30.378906 8.933594 29.980469 9.136719 29.664062 C 9.34375 29.347656 9.691406 29.15625 10.070312 29.15625 L 33.089844 29.039062 C 35.707031 29.039062 38.144531 30.078125 39.964844 31.960938 C 40.332031 32.339844 40.382812 32.917969 40.09375 33.355469 C 36.78125 38.335938 31.277344 41.324219 25.371094 41.351562 C 25.347656 41.351562 25.320312 41.351562 25.296875 41.351562 Z M 11.894531 31.375 C 13.109375 33.464844 14.773438 35.230469 16.769531 36.539062 C 19.335938 38.257812 22.269531 39.105469 25.320312 39.121094 C 30.210938 39.097656 34.753906 36.789062 37.691406 32.894531 C 36.390625 31.839844 34.792969 31.269531 33.097656 31.269531 Z M 11.894531 31.375 " fill-opacity="1" fill-rule="nonzero"/></g><g clip-path="url(#d9fd5dac4f)"><path fill="#ffffff" d="M 32.472656 27.921875 L 9.160156 27.921875 C 8.648438 27.921875 8.203125 27.574219 8.078125 27.082031 C 7.757812 25.816406 7.582031 25.109375 7.566406 23.648438 C 7.546875 22.007812 7.738281 21.269531 8.078125 19.929688 C 8.207031 19.433594 8.648438 19.089844 9.160156 19.089844 L 32.472656 19.089844 C 35.652344 19.089844 37.625 20.78125 37.625 23.503906 C 37.625 27.921875 33.746094 27.921875 32.472656 27.921875 Z M 10.035156 25.691406 L 32.472656 25.691406 C 34.972656 25.691406 35.394531 25.015625 35.394531 23.503906 C 35.394531 22.054688 34.410156 21.320312 32.472656 21.320312 L 10.03125 21.320312 C 9.859375 22.0625 9.785156 22.59375 9.796875 23.550781 C 9.804688 24.5 9.878906 25.023438 10.035156 25.691406 Z M 10.035156 25.691406 " fill-opacity="1" fill-rule="nonzero"/></g><g fill="#ffffff" fill-opacity="1"><g transform="translate(21.234272, 27.264242)"><g><path d="M 0.140625 -0.125 L 0.15625 -0.125 L 0.15625 -0.171875 C 0.15625 -0.203125 0.148438 -0.222656 0.140625 -0.234375 C 0.140625 -0.242188 0.132812 -0.25 0.125 -0.25 C 0.113281 -0.25 0.109375 -0.25 0.109375 -0.25 C 0.109375 -0.25 0.109375 -0.242188 0.109375 -0.234375 C 0.109375 -0.234375 0.109375 -0.226562 0.109375 -0.21875 L 0.125 -0.21875 C 0.125 -0.207031 0.125 -0.195312 0.125 -0.1875 C 0.125 -0.175781 0.117188 -0.164062 0.109375 -0.15625 C 0.0976562 -0.15625 0.0820312 -0.15625 0.0625 -0.15625 C 0.0390625 -0.15625 0.03125 -0.171875 0.03125 -0.203125 C 0.03125 -0.242188 0.0664062 -0.265625 0.140625 -0.265625 C 0.179688 -0.265625 0.207031 -0.253906 0.21875 -0.234375 C 0.238281 -0.222656 0.25 -0.195312 0.25 -0.15625 L 0.25 -0.046875 C 0.25 -0.0351562 0.253906 -0.03125 0.265625 -0.03125 C 0.285156 -0.03125 0.296875 -0.046875 0.296875 -0.078125 C 0.296875 -0.046875 0.289062 -0.0195312 0.28125 0 C 0.269531 0.0078125 0.253906 0.015625 0.234375 0.015625 C 0.179688 0.015625 0.15625 0 0.15625 -0.03125 C 0.144531 -0.0195312 0.132812 -0.0078125 0.125 0 C 0.125 0.0078125 0.113281 0.015625 0.09375 0.015625 C 0.0390625 0.015625 0.015625 -0.0078125 0.015625 -0.0625 C 0.015625 -0.09375 0.0234375 -0.109375 0.046875 -0.109375 C 0.0664062 -0.117188 0.0976562 -0.125 0.140625 -0.125 Z M 0.109375 -0.0625 C 0.109375 -0.0390625 0.109375 -0.0234375 0.109375 -0.015625 C 0.117188 -0.015625 0.125 -0.015625 0.125 -0.015625 C 0.132812 -0.015625 0.140625 -0.0195312 0.140625 -0.03125 C 0.148438 -0.0390625 0.15625 -0.0507812 0.15625 -0.0625 L 0.15625 -0.125 L 0.140625 -0.125 C 0.117188 -0.125 0.109375 -0.101562 0.109375 -0.0625 Z M 0.109375 -0.0625 "/></g></g></g></svg>