<svg xmlns="http://www.w3.org/2000/svg" xmlns:xlink="http://www.w3.org/1999/xlink" width="64" zoomAndPan="magnify" viewBox="0 0 48 48" height="64" preserveAspectRatio="xMidYMid meet" version="1.0"><defs><g/><clipPath id="62b99beff8"><path d="M 9 4.574219 L 39 4.574219 L 39 40 L 9 40 Z M 9 4.574219 " clip-rule="nonzero"/></clipPath><clipPath id="c882ea66e0"><path d="M 11 22 L 39 22 L 39 42.78125 L 11 42.78125 Z M 11 22 " clip-rule="nonzero"/></clipPath></defs><g clip-path="url(#62b99beff8)"><path fill="#ffffff" d="M 10.394531 39.195312 C 10.257812 39.195312 10.117188 39.171875 9.984375 39.121094 C 9.519531 38.953125 9.210938 38.507812 9.210938 38.011719 L 9.210938 5.757812 C 9.210938 5.105469 9.738281 4.574219 10.394531 4.574219 L 37.605469 4.574219 C 38.066406 4.574219 38.484375 4.84375 38.675781 5.261719 C 38.871094 5.679688 38.804688 6.171875 38.511719 6.519531 L 11.296875 38.773438 C 11.066406 39.046875 10.734375 39.195312 10.394531 39.195312 Z M 11.574219 6.941406 L 11.574219 34.777344 L 35.058594 6.941406 Z M 11.574219 6.941406 " fill-opacity="1" fill-rule="nonzero"/></g><g clip-path="url(#c882ea66e0)"><path fill="#ffffff" d="M 37.605469 42.4375 L 12.429688 42.4375 C 11.96875 42.4375 11.546875 42.164062 11.351562 41.746094 C 11.160156 41.324219 11.230469 40.828125 11.53125 40.480469 L 26.679688 22.90625 C 27.070312 22.453125 27.730469 22.363281 28.230469 22.691406 C 35.035156 27.199219 38.785156 33.789062 38.785156 41.25 C 38.789062 41.90625 38.257812 42.4375 37.605469 42.4375 Z M 15.011719 40.070312 L 36.386719 40.070312 C 36.042969 34.152344 33.089844 29.066406 27.78125 25.257812 Z M 15.011719 40.070312 " fill-opacity="1" fill-rule="nonzero"/></g><g fill="#ffffff" fill-opacity="1"><g transform="translate(36.640532, 7.868327)"><g><path d="M 0.140625 -0.125 L 0.15625 -0.125 L 0.15625 -0.171875 C 0.15625 -0.203125 0.148438 -0.222656 0.140625 -0.234375 C 0.140625 -0.242188 0.132812 -0.25 0.125 -0.25 C 0.113281 -0.25 0.109375 -0.25 0.109375 -0.25 C 0.109375 -0.25 0.109375 -0.242188 0.109375 -0.234375 C 0.109375 -0.234375 0.109375 -0.226562 0.109375 -0.21875 L 0.125 -0.21875 C 0.125 -0.207031 0.125 -0.195312 0.125 -0.1875 C 0.125 -0.175781 0.117188 -0.164062 0.109375 -0.15625 C 0.0976562 -0.15625 0.0820312 -0.15625 0.0625 -0.15625 C 0.0390625 -0.15625 0.03125 -0.171875 0.03125 -0.203125 C 0.03125 -0.242188 0.0664062 -0.265625 0.140625 -0.265625 C 0.179688 -0.265625 0.207031 -0.253906 0.21875 -0.234375 C 0.238281 -0.222656 0.25 -0.195312 0.25 -0.15625 L 0.25 -0.046875 C 0.25 -0.0351562 0.253906 -0.03125 0.265625 -0.03125 C 0.285156 -0.03125 0.296875 -0.046875 0.296875 -0.078125 C 0.296875 -0.046875 0.289062 -0.0195312 0.28125 0 C 0.269531 0.0078125 0.253906 0.015625 0.234375 0.015625 C 0.179688 0.015625 0.15625 0 0.15625 -0.03125 C 0.144531 -0.0195312 0.132812 -0.0078125 0.125 0 C 0.125 0.0078125 0.113281 0.015625 0.09375 0.015625 C 0.0390625 0.015625 0.015625 -0.0078125 0.015625 -0.0625 C 0.015625 -0.09375 0.0234375 -0.109375 0.046875 -0.109375 C 0.0664062 -0.117188 0.0976562 -0.125 0.140625 -0.125 Z M 0.109375 -0.0625 C 0.109375 -0.0390625 0.109375 -0.0234375 0.109375 -0.015625 C 0.117188 -0.015625 0.125 -0.015625 0.125 -0.015625 C 0.132812 -0.015625 0.140625 -0.0195312 0.140625 -0.03125 C 0.148438 -0.0390625 0.15625 -0.0507812 0.15625 -0.0625 L 0.15625 -0.125 L 0.140625 -0.125 C 0.117188 -0.125 0.109375 -0.101562 0.109375 -0.0625 Z M 0.109375 -0.0625 "/></g></g></g></svg>