<svg xmlns="http://www.w3.org/2000/svg" xmlns:xlink="http://www.w3.org/1999/xlink" width="64" zoomAndPan="magnify" viewBox="0 0 48 48" height="64" preserveAspectRatio="xMidYMid meet" version="1.0"><defs><g/><clipPath id="30c048e505"><path d="M 15 26 L 34 26 L 34 41.519531 L 15 41.519531 Z M 15 26 " clip-rule="nonzero"/></clipPath><clipPath id="75fa55c0c1"><path d="M 14 5.519531 L 33 5.519531 L 33 21 L 14 21 Z M 14 5.519531 " clip-rule="nonzero"/></clipPath><clipPath id="819d7c89da"><path d="M 6.011719 15 L 17 15 L 17 34 L 6.011719 34 Z M 6.011719 15 " clip-rule="nonzero"/></clipPath></defs><path fill="#ffffff" d="M 16.523438 32.835938 C 15.910156 32.835938 15.410156 32.339844 15.410156 31.726562 L 15.410156 27.9375 C 15.457031 25.433594 17.039062 23.953125 19.644531 23.953125 L 27.773438 23.953125 C 31.15625 23.953125 33.175781 22.050781 33.175781 18.859375 L 33.175781 15.070312 C 33.175781 14.457031 33.671875 13.960938 34.285156 13.960938 C 34.898438 13.960938 35.394531 14.457031 35.394531 15.070312 L 35.394531 18.769531 C 35.394531 23.304688 32.402344 26.175781 27.773438 26.175781 L 19.644531 26.175781 C 17.898438 26.175781 17.648438 27.074219 17.632812 27.957031 L 17.632812 31.726562 C 17.632812 32.339844 17.136719 32.835938 16.523438 32.835938 Z M 16.523438 32.835938 " fill-opacity="1" fill-rule="nonzero"/><g clip-path="url(#30c048e505)"><path fill="#ffffff" d="M 24.175781 41.351562 C 22.746094 41.351562 21.285156 41.238281 19.894531 41.011719 C 17.167969 40.546875 15.410156 38.457031 15.410156 35.679688 L 15.410156 27.9375 C 15.410156 27.324219 15.910156 26.824219 16.523438 26.824219 C 17.136719 26.824219 17.632812 27.324219 17.632812 27.9375 L 17.632812 35.675781 C 17.632812 37.367188 18.613281 38.539062 20.257812 38.816406 C 22.832031 39.234375 25.65625 39.234375 28 38.804688 C 29.386719 38.566406 30.257812 38.214844 30.667969 37.726562 C 31.003906 37.332031 31.144531 36.71875 31.144531 35.675781 L 31.144531 32.09375 L 25.03125 32.09375 C 24.417969 32.09375 23.921875 31.597656 23.921875 30.984375 C 23.921875 30.371094 24.417969 29.871094 25.03125 29.871094 L 32.257812 29.871094 C 32.867188 29.871094 33.367188 30.371094 33.367188 30.984375 L 33.367188 35.675781 C 33.367188 36.75 33.253906 38.113281 32.363281 39.164062 C 31.589844 40.074219 30.328125 40.65625 28.386719 40.988281 C 27.085938 41.230469 25.644531 41.351562 24.175781 41.351562 Z M 24.175781 41.351562 " fill-opacity="1" fill-rule="nonzero"/></g><path fill="#ffffff" d="M 35.308594 32.097656 L 32.257812 32.097656 C 31.644531 32.097656 31.148438 31.597656 31.148438 30.984375 C 31.148438 30.371094 31.644531 29.875 32.257812 29.875 L 35.308594 29.875 C 37.449219 29.875 38.464844 29.117188 38.9375 27.171875 C 39.652344 24.183594 39.652344 22.445312 38.933594 19.425781 C 38.285156 16.734375 37.316406 16.179688 36.0625 16.179688 L 35.394531 16.179688 L 35.394531 18.769531 C 35.394531 19.382812 34.898438 19.925781 34.285156 19.925781 C 33.671875 19.925781 33.175781 19.472656 33.175781 18.859375 L 33.175781 15.070312 C 33.175781 14.457031 33.671875 13.960938 34.285156 13.960938 L 36.0625 13.960938 C 39.503906 13.960938 40.582031 16.785156 41.09375 18.910156 C 41.886719 22.25 41.886719 24.382812 41.09375 27.691406 C 40.386719 30.613281 38.441406 32.097656 35.308594 32.097656 Z M 35.308594 32.097656 " fill-opacity="1" fill-rule="nonzero"/><path fill="#ffffff" d="M 26.882812 38.019531 C 25.457031 38.019531 24.292969 36.855469 24.292969 35.425781 C 24.292969 33.996094 25.457031 32.835938 26.882812 32.835938 C 28.3125 32.835938 29.476562 33.996094 29.476562 35.425781 C 29.460938 36.859375 28.296875 38.019531 26.882812 38.019531 Z M 26.882812 35.058594 C 26.679688 35.058594 26.515625 35.222656 26.515625 35.425781 C 26.515625 35.828125 27.25 35.832031 27.253906 35.414062 C 27.253906 35.222656 27.085938 35.058594 26.882812 35.058594 Z M 26.882812 35.058594 " fill-opacity="1" fill-rule="nonzero"/><path fill="#ffffff" d="M 13.5625 33.207031 C 12.953125 33.207031 12.453125 32.710938 12.453125 32.097656 L 12.453125 28.394531 C 12.453125 23.863281 15.445312 20.992188 20.078125 20.992188 L 28.207031 20.992188 C 29.949219 20.992188 30.203125 20.09375 30.21875 19.210938 L 30.21875 15.441406 C 30.21875 14.828125 30.714844 14.328125 31.328125 14.328125 C 31.941406 14.328125 32.4375 14.828125 32.4375 15.441406 L 32.4375 19.230469 C 32.394531 21.734375 30.8125 23.214844 28.207031 23.214844 L 20.078125 23.214844 C 16.695312 23.214844 14.675781 25.117188 14.675781 28.304688 L 14.675781 32.097656 C 14.675781 32.710938 14.175781 33.207031 13.5625 33.207031 Z M 13.5625 33.207031 " fill-opacity="1" fill-rule="nonzero"/><g clip-path="url(#75fa55c0c1)"><path fill="#ffffff" d="M 31.328125 20.34375 C 30.714844 20.34375 30.21875 19.84375 30.21875 19.230469 L 30.21875 11.488281 C 30.21875 9.796875 29.234375 8.625 27.589844 8.347656 C 25.019531 7.929688 22.195312 7.933594 19.847656 8.363281 C 18.460938 8.597656 17.59375 8.949219 17.179688 9.433594 C 16.84375 9.832031 16.703125 10.445312 16.703125 11.488281 L 16.703125 15.070312 L 22.816406 15.070312 C 23.429688 15.070312 23.925781 15.566406 23.925781 16.179688 C 23.925781 16.792969 23.429688 17.289062 22.816406 17.289062 L 15.59375 17.289062 C 14.980469 17.289062 14.480469 16.792969 14.480469 16.179688 L 14.480469 11.488281 C 14.480469 10.414062 14.597656 9.050781 15.484375 8 C 16.257812 7.089844 17.523438 6.507812 19.460938 6.175781 C 22.039062 5.707031 25.136719 5.699219 27.953125 6.15625 C 30.683594 6.621094 32.441406 8.710938 32.441406 11.488281 L 32.441406 19.230469 C 32.4375 19.84375 31.941406 20.34375 31.328125 20.34375 Z M 31.328125 20.34375 " fill-opacity="1" fill-rule="nonzero"/></g><g clip-path="url(#819d7c89da)"><path fill="#ffffff" d="M 13.5625 33.207031 L 11.789062 33.207031 C 8.34375 33.207031 7.265625 30.382812 6.753906 28.253906 C 5.964844 24.914062 5.964844 22.785156 6.753906 19.476562 C 7.460938 16.550781 9.410156 15.070312 12.542969 15.070312 L 15.59375 15.070312 C 16.207031 15.070312 16.703125 15.566406 16.703125 16.179688 C 16.703125 16.792969 16.207031 17.289062 15.59375 17.289062 L 12.542969 17.289062 C 10.402344 17.289062 9.382812 18.050781 8.914062 19.996094 C 8.199219 22.984375 8.199219 24.71875 8.914062 27.738281 C 9.5625 30.433594 10.535156 30.984375 11.789062 30.984375 L 12.453125 30.984375 L 12.453125 28.394531 C 12.453125 27.78125 12.953125 27.238281 13.5625 27.238281 C 14.175781 27.238281 14.675781 27.695312 14.675781 28.308594 L 14.675781 32.097656 C 14.675781 32.710938 14.175781 33.207031 13.5625 33.207031 Z M 13.5625 33.207031 " fill-opacity="1" fill-rule="nonzero"/></g><path fill="#ffffff" d="M 20.964844 14.328125 C 19.535156 14.328125 18.375 13.167969 18.375 11.742188 C 18.386719 10.304688 19.550781 9.148438 20.964844 9.148438 C 22.394531 9.148438 23.554688 10.3125 23.554688 11.742188 C 23.554688 13.167969 22.394531 14.328125 20.964844 14.328125 Z M 20.964844 11.367188 C 20.757812 11.367188 20.597656 11.539062 20.59375 11.753906 C 20.59375 12.136719 21.335938 12.148438 21.335938 11.742188 C 21.335938 11.542969 21.164062 11.367188 20.964844 11.367188 Z M 20.964844 11.367188 " fill-opacity="1" fill-rule="nonzero"/><g fill="#ffffff" fill-opacity="1"><g transform="translate(31.497675, 18.300981)"><g><path d="M 0.140625 -0.125 L 0.15625 -0.125 L 0.15625 -0.171875 C 0.15625 -0.203125 0.148438 -0.222656 0.140625 -0.234375 C 0.140625 -0.242188 0.132812 -0.25 0.125 -0.25 C 0.113281 -0.25 0.109375 -0.25 0.109375 -0.25 C 0.109375 -0.25 0.109375 -0.242188 0.109375 -0.234375 C 0.109375 -0.234375 0.109375 -0.226562 0.109375 -0.21875 L 0.125 -0.21875 C 0.125 -0.207031 0.125 -0.195312 0.125 -0.1875 C 0.125 -0.175781 0.117188 -0.164062 0.109375 -0.15625 C 0.0976562 -0.15625 0.0820312 -0.15625 0.0625 -0.15625 C 0.0390625 -0.15625 0.03125 -0.171875 0.03125 -0.203125 C 0.03125 -0.242188 0.0664062 -0.265625 0.140625 -0.265625 C 0.179688 -0.265625 0.207031 -0.253906 0.21875 -0.234375 C 0.238281 -0.222656 0.25 -0.195312 0.25 -0.15625 L 0.25 -0.046875 C 0.25 -0.0351562 0.253906 -0.03125 0.265625 -0.03125 C 0.285156 -0.03125 0.296875 -0.046875 0.296875 -0.078125 C 0.296875 -0.046875 0.289062 -0.0195312 0.28125 0 C 0.269531 0.0078125 0.253906 0.015625 0.234375 0.015625 C 0.179688 0.015625 0.15625 0 0.15625 -0.03125 C 0.144531 -0.0195312 0.132812 -0.0078125 0.125 0 C 0.125 0.0078125 0.113281 0.015625 0.09375 0.015625 C 0.0390625 0.015625 0.015625 -0.0078125 0.015625 -0.0625 C 0.015625 -0.09375 0.0234375 -0.109375 0.046875 -0.109375 C 0.0664062 -0.117188 0.0976562 -0.125 0.140625 -0.125 Z M 0.109375 -0.0625 C 0.109375 -0.0390625 0.109375 -0.0234375 0.109375 -0.015625 C 0.117188 -0.015625 0.125 -0.015625 0.125 -0.015625 C 0.132812 -0.015625 0.140625 -0.0195312 0.140625 -0.03125 C 0.148438 -0.0390625 0.15625 -0.0507812 0.15625 -0.0625 L 0.15625 -0.125 L 0.140625 -0.125 C 0.117188 -0.125 0.109375 -0.101562 0.109375 -0.0625 Z M 0.109375 -0.0625 "/></g></g></g></svg>